<svg xmlns="http://www.w3.org/2000/svg" width="32" height="32" viewBox="0 0 32 32">
  <g id="Instagram" transform="translate(-57 803)">
    <circle id="BG" cx="16" cy="16" r="16" transform="translate(57 -803)" fill="#fafafa"/>
    <path id="Icon" d="M5.453,0h7.9A5.457,5.457,0,0,1,18.8,5.453v7.9A5.457,5.457,0,0,1,13.35,18.8h-7.9A5.457,5.457,0,0,1,0,13.35v-7.9A5.457,5.457,0,0,1,5.453,0M5.265,1.88A3.37,3.37,0,0,0,1.88,5.265h0v8.273a3.37,3.37,0,0,0,3.384,3.384h8.273a3.37,3.37,0,0,0,3.384-3.384h0V5.265A3.37,3.37,0,0,0,13.538,1.88H5.265M14.29,3.29a1.143,1.143,0,0,1,1.128,1.128A1.227,1.227,0,0,1,14.29,5.641a1.143,1.143,0,0,1-1.128-1.128A1.306,1.306,0,0,1,14.29,3.29M9.4,4.7A4.7,4.7,0,1,1,4.7,9.4,4.655,4.655,0,0,1,9.4,4.7m0,1.88A2.77,2.77,0,0,0,6.581,9.4a2.77,2.77,0,0,0,2.82,2.82,2.77,2.77,0,0,0,2.82-2.82A2.77,2.77,0,0,0,9.4,6.581Z" transform="translate(63.599 -796.401)" fill="#5a6b88"/>
  </g>
</svg>
