<svg xmlns="http://www.w3.org/2000/svg" width="169.404" height="28.406" viewBox="0 0 169.404 28.406">
  <g id="Logo" transform="translate(-150 -103.45)">
    <g id="Logo_-_Main" data-name="Logo - Main" transform="translate(150 103.45)">
      <path id="Path_5614" data-name="Path 5614" d="M8.409,35.758V35.43a5.248,5.248,0,0,0,1.281-.2.591.591,0,0,0,.493-.591V27.283a5.151,5.151,0,0,0-.657-2.727,2.436,2.436,0,0,0-2.234-1.051A3.118,3.118,0,0,0,5.65,23.9a8.344,8.344,0,0,0-1.478,1.215v9.592a.743.743,0,0,0,.2.427.783.783,0,0,0,.361.2,1.989,1.989,0,0,0,.493.066,3.237,3.237,0,0,1,.558.066v.3H0v-.3A3.929,3.929,0,0,0,1.183,35.2a.688.688,0,0,0,.493-.657V24.458a1.124,1.124,0,0,0-.033-.361.965.965,0,0,0-.263-.263c-.2-.1-.394-.2-.624-.328a7.029,7.029,0,0,0-.723-.328v-.164l3.942-1.38h.164v3.154l.066.033c.23-.328.493-.69.821-1.084a8.461,8.461,0,0,1,1.117-1.051,7.145,7.145,0,0,1,1.38-.788A4.206,4.206,0,0,1,9.1,21.6a3.219,3.219,0,0,1,2.694,1.248,5.233,5.233,0,0,1,.92,3.252v8.607a.454.454,0,0,0,.2.361,2.007,2.007,0,0,0,.46.23c.164.033.361.1.591.131a3.62,3.62,0,0,0,.591.066v.263Z" transform="translate(0 -14.504)" fill="#222836"/>
      <path id="Path_5615" data-name="Path 5615" d="M57.857,32.836a6,6,0,0,1-1.15,1.478,5.871,5.871,0,0,1-1.741,1.117,5.421,5.421,0,0,1-2.234.427A6.944,6.944,0,0,1,49.94,35.3a5.779,5.779,0,0,1-2.168-1.577,7.351,7.351,0,0,1-1.38-2.365,8.484,8.484,0,0,1-.493-2.891,6.934,6.934,0,0,1,.46-2.431,6.535,6.535,0,0,1,1.281-2.168,6.771,6.771,0,0,1,2-1.577,5.826,5.826,0,0,1,2.628-.591,7.92,7.92,0,0,1,2.2.3,5.46,5.46,0,0,1,1.807.887,4.345,4.345,0,0,1,1.248,1.511,4.77,4.77,0,0,1,.558,2.135H48.5a3.58,3.58,0,0,1-.033.558,3.977,3.977,0,0,0-.033.624,8.087,8.087,0,0,0,.361,2.365,6.149,6.149,0,0,0,1.051,2,4.7,4.7,0,0,0,1.741,1.347,5.634,5.634,0,0,0,2.431.493,4.661,4.661,0,0,0,2.628-.756,3.449,3.449,0,0,0,1.478-1.84l.23.066a3.767,3.767,0,0,1-.493,1.445m-3.449-9.888a2.8,2.8,0,0,0-2.07-.788,2.451,2.451,0,0,0-1.511.493,5.479,5.479,0,0,0-1.183,1.117,4.85,4.85,0,0,0-.756,1.314,3.892,3.892,0,0,0-.329,1.018h2.332c.361,0,.723-.033,1.117-.033h1.281a7.146,7.146,0,0,0,.854-.033,3.683,3.683,0,0,0,.69-.131c.131-.164.23-.3.328-.427a1.441,1.441,0,0,0,.1-.624,2.925,2.925,0,0,0-.854-1.905" transform="translate(-30.822 -14.571)" fill="#222836"/>
      <path id="Path_5616" data-name="Path 5616" d="M106.357,22.894a2.61,2.61,0,0,0-.723.2,2.361,2.361,0,0,0-.723.493,3.187,3.187,0,0,0-.624.953c-.23.558-.526,1.183-.854,1.905s-.657,1.511-1.018,2.3-.69,1.61-1.051,2.4-.657,1.544-.953,2.2c-.2.361-.329.69-.46.953s-.23.493-.328.69l-.3.591L99,36.231a.27.27,0,0,1-.263.164.278.278,0,0,1-.2-.066.249.249,0,0,1-.066-.131c-.263-.756-.526-1.478-.756-2.168s-.493-1.413-.756-2.168-.558-1.544-.854-2.431-.657-1.872-1.051-3.022L92.2,33.669a9.085,9.085,0,0,0-.624,1.347,11.343,11.343,0,0,1-.526,1.215.315.315,0,0,1-.3.164.308.308,0,0,1-.263-.2c-.788-1.84-1.544-3.646-2.3-5.42-.756-1.741-1.544-3.613-2.365-5.584q-.2-.394-.394-.887a6.691,6.691,0,0,0-.46-.854,4.651,4.651,0,0,0-.526-.361,3.384,3.384,0,0,0-1.347-.263V22.5h6.767v.329c-.131.033-.3.033-.493.066s-.394.066-.558.1a5.068,5.068,0,0,0-.558.164,1.135,1.135,0,0,0-.394.23c.033.164.2.591.46,1.281s.591,1.511,1.018,2.464q.591,1.429,1.281,3.055T91.9,33.143c.164-.394.361-.854.558-1.413.23-.558.46-1.15.723-1.807s.526-1.347.788-2.07.526-1.445.788-2.135A11.335,11.335,0,0,0,94.3,24.6a8.489,8.489,0,0,0-.558-1.084.87.87,0,0,1-.164-.2,1.43,1.43,0,0,0-.23-.2,1.233,1.233,0,0,0-.46-.164,4.706,4.706,0,0,0-.854-.1v-.328H98.9v.328c-.164.033-.361.033-.591.066a5.571,5.571,0,0,0-.723.131,1.623,1.623,0,0,0-.591.263.54.54,0,0,0-.263.493,4.379,4.379,0,0,0,.164.69c.1.361.263.821.427,1.347s.394,1.117.624,1.741c.23.657.46,1.281.723,1.938.23.657.493,1.281.723,1.905s.427,1.15.624,1.61c.131-.263.3-.624.526-1.117s.46-1.051.723-1.675.526-1.248.788-1.905.526-1.281.723-1.84c.2-.591.394-1.084.526-1.544a4,4,0,0,0,.2-.953.889.889,0,0,0-.2-.624,1.3,1.3,0,0,0-.493-.328,3.49,3.49,0,0,0-.624-.131c-.23-.033-.427-.033-.591-.066v-.328h5.519v.328a5.568,5.568,0,0,0-.756.033" transform="translate(-55.802 -15.109)" fill="#222836"/>
      <path id="Path_5617" data-name="Path 5617" d="M163.808,21.254v-.328a6.551,6.551,0,0,0,1.347-.2c.361-.1.526-.3.526-.591V12.811a8.064,8.064,0,0,0-.131-1.577,3.288,3.288,0,0,0-.427-1.248,2.058,2.058,0,0,0-.854-.821,2.862,2.862,0,0,0-1.38-.3,3.907,3.907,0,0,0-1.84.394,3.666,3.666,0,0,0-1.215,1.018c-.033.066-.1.2-.164.361a1.633,1.633,0,0,0-.1.526v8.968a.492.492,0,0,0,.164.394,1.136,1.136,0,0,0,.394.23,2.443,2.443,0,0,0,.558.1,3.7,3.7,0,0,1,.591.1v.3H155.3v-.3a4.691,4.691,0,0,0,1.248-.23.706.706,0,0,0,.558-.723V3.383a1.125,1.125,0,0,0-.033-.361.966.966,0,0,0-.263-.263,2.872,2.872,0,0,0-.657-.394c-.263-.131-.526-.263-.788-.427V1.774L159.373,0h.23l-.1,10.15.066.033a4.437,4.437,0,0,1,.657-.92,5.242,5.242,0,0,1,1.084-.985,6.557,6.557,0,0,1,1.511-.788,4.99,4.99,0,0,1,1.872-.328,3.72,3.72,0,0,1,1.675.328,2.547,2.547,0,0,1,1.084.953,4.1,4.1,0,0,1,.558,1.413,10.162,10.162,0,0,1,.164,1.774v8.639a.454.454,0,0,0,.2.361,1.5,1.5,0,0,0,.46.23c.164.033.361.1.558.131a3.658,3.658,0,0,0,.558.066v.263h-6.143Z" transform="translate(-104.285)" fill="#222836"/>
      <path id="Path_5618" data-name="Path 5618" d="M216.865,31.489a7.6,7.6,0,0,1-1.544,2.332,6.984,6.984,0,0,1-2.234,1.544,6.817,6.817,0,0,1-2.694.558,8,8,0,0,1-2.431-.394,6.876,6.876,0,0,1-2.332-1.314,6.558,6.558,0,0,1-1.741-2.3,7.19,7.19,0,0,1-.69-3.252,6.433,6.433,0,0,1,.526-2.6,7.354,7.354,0,0,1,1.478-2.234,6.744,6.744,0,0,1,2.3-1.544,7.428,7.428,0,0,1,5.387-.164,6.684,6.684,0,0,1,2.234,1.314,7.272,7.272,0,0,1,1.643,2.168,6.761,6.761,0,0,1,.657,3.055,7.468,7.468,0,0,1-.558,2.825M214.4,26.5a7.278,7.278,0,0,0-.756-2.1,4.592,4.592,0,0,0-1.347-1.61,3.3,3.3,0,0,0-2.07-.624,2.883,2.883,0,0,0-1.774.591,4.768,4.768,0,0,0-1.347,1.544,8.289,8.289,0,0,0-.854,2.135,10.048,10.048,0,0,0-.3,2.431,13.047,13.047,0,0,0,.23,2.562,7.183,7.183,0,0,0,.788,2.135,4.273,4.273,0,0,0,1.38,1.478,3.689,3.689,0,0,0,2.037.526,2.885,2.885,0,0,0,1.971-.69,5.527,5.527,0,0,0,1.314-1.741A9.882,9.882,0,0,0,214.4,30.9a10.981,10.981,0,0,0,.23-2.234,9.941,9.941,0,0,0-.23-2.168" transform="translate(-136.45 -14.571)" fill="#222836"/>
      <path id="Path_5619" data-name="Path 5619" d="M267.586,35.825V35.5a5.215,5.215,0,0,0,1.248-.2.566.566,0,0,0,.427-.591V27.252a4.956,4.956,0,0,0-.624-2.694,2.406,2.406,0,0,0-2.168-1.018,2.466,2.466,0,0,0-1.642.526,12.376,12.376,0,0,0-1.38,1.314V34.84a.528.528,0,0,0,.164.361,1.135,1.135,0,0,0,.394.23c.164.033.328.1.526.131a3.234,3.234,0,0,0,.558.066v.263h-6.011v-.328a5.25,5.25,0,0,0,1.281-.2.591.591,0,0,0,.493-.591V27.219a4.809,4.809,0,0,0-.624-2.694,2.388,2.388,0,0,0-2.168-.985,2.919,2.919,0,0,0-1.61.394,8.517,8.517,0,0,0-1.413,1.215v9.592a.741.741,0,0,0,.2.427.783.783,0,0,0,.361.2,2.535,2.535,0,0,0,.493.066,3.658,3.658,0,0,1,.558.066v.3H250.8v-.3a3.928,3.928,0,0,0,1.183-.263.688.688,0,0,0,.493-.657V24.591a1.12,1.12,0,0,0-.033-.361.964.964,0,0,0-.263-.263c-.2-.1-.394-.2-.624-.329a7.031,7.031,0,0,0-.723-.328v-.23l3.942-1.38h.164v3.154l.066.033a5.643,5.643,0,0,1,.789-1.084,5.492,5.492,0,0,1,1.117-1.018,7.009,7.009,0,0,1,1.38-.756,4.161,4.161,0,0,1,1.544-.3,3.069,3.069,0,0,1,2.332.92,4.266,4.266,0,0,1,1.084,2.464h.1A5.154,5.154,0,0,1,264.1,24a8.966,8.966,0,0,1,1.117-1.117,5.489,5.489,0,0,1,1.413-.821,3.882,3.882,0,0,1,1.577-.328,3.031,3.031,0,0,1,2.628,1.215,5.267,5.267,0,0,1,.887,3.154v8.705a.527.527,0,0,0,.164.361,1.768,1.768,0,0,0,.427.23c.164.033.361.1.559.131a3.655,3.655,0,0,0,.558.066v.263h-5.847Z" transform="translate(-168.414 -14.571)" fill="#222836"/>
      <path id="Path_5620" data-name="Path 5620" d="M335.057,32.836a6,6,0,0,1-1.15,1.478,5.871,5.871,0,0,1-1.741,1.117,5.422,5.422,0,0,1-2.234.427,6.944,6.944,0,0,1-2.792-.558,5.779,5.779,0,0,1-2.168-1.577,7.349,7.349,0,0,1-1.38-2.365,8.483,8.483,0,0,1-.493-2.891,6.934,6.934,0,0,1,.46-2.431,6.535,6.535,0,0,1,1.281-2.168,6.773,6.773,0,0,1,2-1.577,5.827,5.827,0,0,1,2.628-.591,7.92,7.92,0,0,1,2.2.3,5.463,5.463,0,0,1,1.807.887,4.346,4.346,0,0,1,1.248,1.511,4.77,4.77,0,0,1,.558,2.135H325.7a3.569,3.569,0,0,1-.033.558,3.981,3.981,0,0,0-.033.624,8.087,8.087,0,0,0,.361,2.365,6.149,6.149,0,0,0,1.051,2,4.7,4.7,0,0,0,1.741,1.347,5.634,5.634,0,0,0,2.431.493,4.661,4.661,0,0,0,2.628-.756,3.449,3.449,0,0,0,1.478-1.84l.23.066a3.766,3.766,0,0,1-.493,1.445m-3.416-9.888a2.8,2.8,0,0,0-2.07-.788,2.451,2.451,0,0,0-1.511.493,5.48,5.48,0,0,0-1.183,1.117,4.848,4.848,0,0,0-.755,1.314,3.885,3.885,0,0,0-.329,1.018h2.332c.361,0,.723-.033,1.117-.033h1.281a7.146,7.146,0,0,0,.854-.033,3.682,3.682,0,0,0,.69-.131c.131-.164.23-.3.329-.427a1.442,1.442,0,0,0,.1-.624,3.287,3.287,0,0,0-.854-1.905" transform="translate(-216.964 -14.571)" fill="#222836"/>
      <path id="Path_5621" data-name="Path 5621" d="M363.384,9.226,361.731,4.3l-1.923,5.669H353.7l4.926,3.543-1.856,5.669,4.96-3.475,1.653,1.147-1.653-2.362-3.1,2.193,1.181-3.543-3.071-2.193,3.813-.034L361.933,6.8Z" transform="translate(-237.69 -4.164)" fill="#ffd331"/>
      <path id="Path_5622" data-name="Path 5622" d="M382.7,41.6a.1.1,0,1,1-.1-.1.148.148,0,0,1,.1.1" transform="translate(-256.851 -27.867)" fill="#222836"/>
      <path id="Path_5623" data-name="Path 5623" d="M420.264,19.17H415.7v7.687a3.109,3.109,0,0,0,.657,2.168,2.252,2.252,0,0,0,1.708.69,3.666,3.666,0,0,0,1.445-.263,2.456,2.456,0,0,0,.985-.854l.2.1a8.576,8.576,0,0,1-.493.92,3.11,3.11,0,0,1-.854.887,4.44,4.44,0,0,1-1.248.624,6.065,6.065,0,0,1-1.676.23,3.769,3.769,0,0,1-1.215-.2,4.031,4.031,0,0,1-1.051-.558,2.836,2.836,0,0,1-.723-.821,2.017,2.017,0,0,1-.3-.92c0-1.84,0-3.581.033-5.223s.033-3.121.033-4.4H411v-.328l4.369-4.008h.23v2.529h5.584Z" transform="translate(-275.989 -10.006)" fill="#222836"/>
      <path id="Path_5624" data-name="Path 5624" d="M456.313,34.186a3.678,3.678,0,0,1-.624.953,2.624,2.624,0,0,1-.92.657,3.257,3.257,0,0,1-1.15.23,2.909,2.909,0,0,1-1.807-.591,2.4,2.4,0,0,1-.788-2.037l-.066-.033a5.99,5.99,0,0,1-.657.854,6.192,6.192,0,0,1-.953.887,5.006,5.006,0,0,1-1.248.657,4.37,4.37,0,0,1-1.478.263,3.392,3.392,0,0,1-.986-.131,2.292,2.292,0,0,1-.887-.46,2.824,2.824,0,0,1-.657-.854,3.067,3.067,0,0,1-.263-1.281,2.283,2.283,0,0,1,.69-1.577,8.933,8.933,0,0,1,1.675-1.38c.657-.394,1.248-.756,1.774-1.051s.953-.526,1.347-.756c.394-.2.723-.394,1.019-.526a4.772,4.772,0,0,0,.723-.394V24.594a.884.884,0,0,0-.1-.263,1.974,1.974,0,0,0-.361-.46,2.094,2.094,0,0,0-.723-.427,2.954,2.954,0,0,0-1.182-.2,3.226,3.226,0,0,0-.953.164,3.17,3.17,0,0,0-.821.394,2.837,2.837,0,0,0-.558.493.706.706,0,0,0-.2.427v1.314a.865.865,0,0,1-.427.723,1.462,1.462,0,0,1-.953.328,1.09,1.09,0,0,1-.821-.328,1.1,1.1,0,0,1-.361-.788,1.5,1.5,0,0,1,.164-.657,2.3,2.3,0,0,1,.46-.526,1.866,1.866,0,0,1,.591-.394c.2-.131.394-.23.558-.328.526-.3,1.051-.591,1.61-.854.526-.263,1.051-.493,1.544-.69a10.956,10.956,0,0,1,1.347-.46,3.384,3.384,0,0,1,1.018-.164,2.931,2.931,0,0,1,1.478.394,2.369,2.369,0,0,1,.985.985,2.115,2.115,0,0,1,.164.723c.033.328.033.69.033,1.018,0,.69,0,1.347-.033,1.905v1.642c0,.526,0,1.084-.033,1.61v1.84a2.458,2.458,0,0,0,.46,1.741,1.46,1.46,0,0,0,1.084.427,1.717,1.717,0,0,0,1.018-.263,1.525,1.525,0,0,0,.46-.723h.2a10.209,10.209,0,0,0-.394.985m-5.354-6.176a14.363,14.363,0,0,1-1.347.821c-.526.3-1.051.591-1.577.92a6.253,6.253,0,0,0-1.314,1.084,1.976,1.976,0,0,0-.558,1.347,2.078,2.078,0,0,0,.526,1.38,1.837,1.837,0,0,0,1.413.624,5.674,5.674,0,0,0,1.38-.164,2.731,2.731,0,0,0,1.117-.69,1.12,1.12,0,0,0,.361-.821Z" transform="translate(-297.88 -14.706)" fill="#222836"/>
      <path id="Path_5625" data-name="Path 5625" d="M494.489,24.3a1.165,1.165,0,0,1-.92.427,1.517,1.517,0,0,1-.756-.164,1.911,1.911,0,0,1-.493-.361,2.484,2.484,0,0,0-.46-.361,1.236,1.236,0,0,0-1.38.1,2.925,2.925,0,0,0-.657.624,5.471,5.471,0,0,0-.559.854c-.164.329-.3.624-.427.92v8.442a.667.667,0,0,0,.394.394,2.123,2.123,0,0,0,.69.2,6.377,6.377,0,0,0,.788.066,4.922,4.922,0,0,1,.723.066v.3H484.7v-.3a3.928,3.928,0,0,0,1.183-.263.688.688,0,0,0,.493-.657V24.689a1.123,1.123,0,0,0-.033-.361.967.967,0,0,0-.263-.263c-.164-.1-.394-.23-.624-.361a7.428,7.428,0,0,0-.723-.361v-.164l3.942-1.478h.164l-.066,4.04h.066c.1-.23.263-.591.493-1.018a7.655,7.655,0,0,1,.854-1.347,4.767,4.767,0,0,1,1.248-1.183,2.847,2.847,0,0,1,1.642-.493,1.947,1.947,0,0,1,1.281.427,1.354,1.354,0,0,1,.526,1.117,1.438,1.438,0,0,1-.394,1.051" transform="translate(-325.479 -14.571)" fill="#222836"/>
      <path id="Path_5626" data-name="Path 5626" d="M358.873,33.709a2.365,2.365,0,0,1-.1-.953,1.506,1.506,0,0,1,.328-.821,2.178,2.178,0,0,1,.854-.591,2.361,2.361,0,0,1,1.183-.1,1.446,1.446,0,0,1,.986.624,1.076,1.076,0,0,1,.164,1.183,1.7,1.7,0,0,1-.953.821,2.793,2.793,0,0,0,.3.723,7.89,7.89,0,0,0,.427.69,3.265,3.265,0,0,0,1.38,1.215,4.566,4.566,0,0,0,1.741.46,8.647,8.647,0,0,0,1.84-.1,7.762,7.762,0,0,0,1.675-.46,4.977,4.977,0,0,0,2.037-1.314,3.894,3.894,0,0,0,.887-1.807,5.655,5.655,0,0,0,0-2.1,10.078,10.078,0,0,0-.657-2.234,19.248,19.248,0,0,0-1.051-2.2c-.394-.723-.788-1.38-1.182-2a18.268,18.268,0,0,1-1.643-3.318,7.582,7.582,0,0,1-.493-3.088,4.757,4.757,0,0,1,.92-2.562,5.41,5.41,0,0,1,2.6-1.807,8.264,8.264,0,0,1,1.544-.427,4.891,4.891,0,0,1,1.544-.033,5.391,5.391,0,0,1,1.413.427,2.992,2.992,0,0,1,1.117,1.018A1.907,1.907,0,0,1,376.119,16a1.413,1.413,0,0,1-.263.887,3.012,3.012,0,0,1-.723.723,10.638,10.638,0,0,1-1.051.558,5.757,5.757,0,0,0-.164-1.314,4.564,4.564,0,0,0-.624-1.281,3.319,3.319,0,0,0-1.544-1.248,2.628,2.628,0,0,0-1.807,0,2.517,2.517,0,0,0-1.412,1.117,2.846,2.846,0,0,0-.3,1.675,7.17,7.17,0,0,0,.558,2.1c.328.756.69,1.544,1.117,2.365s.887,1.642,1.347,2.5c.493.854.953,1.675,1.38,2.5a10.377,10.377,0,0,1,.92,2.464,6.67,6.67,0,0,1,.066,2.792,5.9,5.9,0,0,1-1.413,2.727,8.625,8.625,0,0,1-3.482,2.234,10.008,10.008,0,0,1-2.464.591,9.779,9.779,0,0,1-2.6-.066,7.817,7.817,0,0,1-2.4-.887,5.868,5.868,0,0,1-1.905-1.807,2.5,2.5,0,0,1-.493-.92" transform="translate(-240.911 -9.039)" fill="#222836"/>
    </g>
  </g>
</svg>
