<svg xmlns="http://www.w3.org/2000/svg" width="32" height="32" viewBox="0 0 32 32">
  <g id="Twitter" transform="translate(-57 914)">
    <circle id="BG" cx="16" cy="16" r="16" transform="translate(57 -914)" fill="#fafafa"/>
    <path id="Icon" d="M19.115,1.829a9.4,9.4,0,0,1-2.287.64,3.792,3.792,0,0,0,1.738-2.2A11.661,11.661,0,0,1,16.1,1.28,3.75,3.75,0,0,0,13.262,0,3.9,3.9,0,0,0,9.329,3.933a3.111,3.111,0,0,0,.091.915A11.042,11.042,0,0,1,1.372.732,3.6,3.6,0,0,0,.823,2.652,4.109,4.109,0,0,0,2.561,5.945,4.163,4.163,0,0,1,.732,5.488h0a3.932,3.932,0,0,0,3.11,3.841,3.89,3.89,0,0,1-1.006.183A2.014,2.014,0,0,1,2.1,9.42a3.957,3.957,0,0,0,3.658,2.744A7.41,7.41,0,0,1,.915,13.811,3.111,3.111,0,0,1,0,13.719a10.675,10.675,0,0,0,6.036,1.829A11.056,11.056,0,0,0,17.195,4.39V3.841A8.073,8.073,0,0,0,19.115,1.829Z" transform="translate(64.32 -905.221)" fill="#5a6b88"/>
  </g>
</svg>
